<svg width="48" height="48" viewBox="0 0 48 48" fill="none" xmlns="http://www.w3.org/2000/svg">
<path d="M0 8C0 3.58172 3.58172 0 8 0H39.3333C43.7516 0 47.3333 3.58172 47.3333 8V40C47.3333 44.4183 43.7516 48 39.3333 48H7.99999C3.58171 48 0 44.4183 0 40V8Z" fill="#FAE8E1"/>
<path d="M25.2014 20H32.5764L25.2014 12.6875V20ZM29.2014 26.6875V24H18.5764V26.6875H29.2014ZM29.2014 32V29.3125H18.5764V32H29.2014ZM26.5764 10.6875L34.5764 18.6875V34.6875C34.5764 35.3958 34.3056 36.0208 33.7639 36.5625C33.2222 37.0625 32.5972 37.3125 31.8889 37.3125H15.8889C15.1806 37.3125 14.5556 37.0625 14.0139 36.5625C13.4722 36.0208 13.2014 35.3958 13.2014 34.6875L13.2639 13.3125C13.2639 12.6042 13.5139 12 14.0139 11.5C14.5556 10.9583 15.1806 10.6875 15.8889 10.6875H26.5764Z" fill="#CF6F49"/>
</svg>
