<svg width="48" height="48" viewBox="0 0 48 48" fill="none" xmlns="http://www.w3.org/2000/svg">
<path d="M0 8C0 3.58172 3.58172 0 8 0H39.3333C43.7516 0 47.3333 3.58172 47.3333 8V40C47.3333 44.4183 43.7516 48 39.3333 48H7.99999C3.58171 48 0 44.4183 0 40V8Z" fill="#FAE8E1"/>
<path d="M33.2014 26.6875V16C33.2014 15.25 32.9306 14.625 32.3889 14.125C31.8889 13.5833 31.2847 13.3125 30.5764 13.3125H11.8889C11.1389 13.3125 10.4931 13.5833 9.95142 14.125C9.45142 14.625 9.20142 15.25 9.20142 16V26.6875C9.20142 27.3958 9.45142 28.0208 9.95142 28.5625C10.4931 29.0625 11.1389 29.3125 11.8889 29.3125H30.5764C31.2847 29.3125 31.8889 29.0625 32.3889 28.5625C32.9306 28.0208 33.2014 27.3958 33.2014 26.6875ZM21.2014 25.3125C20.4931 25.3125 19.8264 25.1458 19.2014 24.8125C18.6181 24.4375 18.1389 23.9583 17.7639 23.375C17.3889 22.75 17.2014 22.0625 17.2014 21.3125C17.2014 20.6042 17.3889 19.9583 17.7639 19.375C18.1389 18.75 18.6181 18.25 19.2014 17.875C19.8264 17.5 20.4931 17.3125 21.2014 17.3125C21.9514 17.3125 22.6181 17.5 23.2014 17.875C23.8264 18.25 24.3056 18.75 24.6389 19.375C25.0139 19.9583 25.2014 20.6042 25.2014 21.3125C25.2014 22.0625 25.0139 22.75 24.6389 23.375C24.3056 23.9583 23.8264 24.4375 23.2014 24.8125C22.6181 25.1458 21.9514 25.3125 21.2014 25.3125ZM38.5764 17.3125V32C38.5764 32.75 38.3056 33.3958 37.7639 33.9375C37.2639 34.4375 36.6389 34.6875 35.8889 34.6875H13.2014V32H35.8889V17.3125H38.5764Z" fill="#CF6F49"/>
</svg>
